<svg width="23" height="19" xmlns="http://www.w3.org/2000/svg" xmlns:xlink="http://www.w3.org/1999/xlink">
  <g>
    <path d="M20.5175714,4.62614286 C20.5275714,4.82757143 20.5318571,5.029 20.5318571,5.23328571 C20.5318571,11.4304286 15.8147143,18.5761429 7.189,18.5761429 C4.539,18.5761429 2.07614286,17.799 0.000428571428,16.469 C0.367571429,16.5104286 0.740428571,16.5332857 1.119,16.5332857 C3.31757143,16.5332857 5.33757143,15.7847143 6.94185714,14.5275714 C4.89042857,14.4875714 3.159,13.1318571 2.56328571,11.269 C2.849,11.3232857 3.14185714,11.3547143 3.44471429,11.3547143 C3.87328571,11.3547143 4.28757143,11.2961429 4.679,11.189 C2.53614286,10.7575714 0.917571429,8.86328571 0.917571429,6.59042857 L0.917571429,6.53185714 C1.55185714,6.88328571 2.27328571,7.09471429 3.04328571,7.119 C1.78471429,6.27757143 0.957571429,4.84185714 0.957571429,3.21614286 C0.957571429,2.35614286 1.189,1.55042857 1.59185714,0.857571429 C3.90328571,3.69614286 7.36042857,5.56185714 11.2575714,5.75757143 C11.1775714,5.41471429 11.1361429,5.05614286 11.1361429,4.689 C11.1361429,2.099 13.2347143,0.000428571429 15.8261429,0.000428571429 C17.1732857,0.000428571429 18.3932857,0.569 19.2475714,1.48042857 C20.3147143,1.27042857 21.319,0.880428571 22.2261429,0.341857143 C21.8747143,1.43757143 21.1332857,2.35757143 20.1647143,2.93614286 C21.1132857,2.82328571 22.0175714,2.57185714 22.8575714,2.199 C22.229,3.139 21.4347143,3.96471429 20.5175714,4.62614286" fill="rgb(226 232 240)"/>
  </g>
</svg>
